<?xml version="1.0" encoding="UTF-8" standalone="no"?>
<!DOCTYPE svg PUBLIC "-//W3C//DTD SVG 1.1//EN"
 "http://www.w3.org/Graphics/SVG/1.1/DTD/svg11.dtd">
<!-- Generated by graphviz version 2.40.1 (20161225.0304)
 -->
<!-- Title: top Pages: 1 -->
<svg width="563pt" height="620pt"
 viewBox="0.00 0.00 563.18 620.00" xmlns="http://www.w3.org/2000/svg" xmlns:xlink="http://www.w3.org/1999/xlink">
<g id="graph0" class="graph" transform="scale(1 1) rotate(0) translate(4 616)">
<title>top</title>
<polygon fill="#ffffff" stroke="transparent" points="-4,4 -4,-616 559.1811,-616 559.1811,4 -4,4"/>
<!-- Step 1: Extract country names from text -->
<g id="node1" class="node">
<title>Step 1: Extract country names from text</title>
<polygon fill="none" stroke="#000000" points="340.2907,-540 104.2907,-540 104.2907,-504 340.2907,-504 340.2907,-540"/>
<text text-anchor="middle" x="222.2907" y="-518.3" font-family="Times,serif" font-size="14.00" fill="#000000">Step 1: Extract country names from text</text>
</g>
<!-- Extracted country names -->
<g id="node2" class="node">
<title>Extracted country names</title>
<ellipse fill="none" stroke="#000000" cx="222.2907" cy="-450" rx="98.5829" ry="18"/>
<text text-anchor="middle" x="222.2907" y="-446.3" font-family="Times,serif" font-size="14.00" fill="#000000">Extracted country names</text>
</g>
<!-- Step 1: Extract country names from text&#45;&gt;Extracted country names -->
<g id="edge1" class="edge">
<title>Step 1: Extract country names from text&#45;&gt;Extracted country names</title>
<path fill="none" stroke="#000000" d="M222.2907,-503.8314C222.2907,-496.131 222.2907,-486.9743 222.2907,-478.4166"/>
<polygon fill="#000000" stroke="#000000" points="225.7908,-478.4132 222.2907,-468.4133 218.7908,-478.4133 225.7908,-478.4132"/>
</g>
<!-- Step 2: Bundle countries in regions -->
<g id="node3" class="node">
<title>Step 2: Bundle countries in regions</title>
<polygon fill="none" stroke="#000000" points="418.7907,-396 209.7907,-396 209.7907,-360 418.7907,-360 418.7907,-396"/>
<text text-anchor="middle" x="314.2907" y="-374.3" font-family="Times,serif" font-size="14.00" fill="#000000">Step 2: Bundle countries in regions</text>
</g>
<!-- Extracted country names&#45;&gt;Step 2: Bundle countries in regions -->
<g id="edge7" class="edge">
<title>Extracted country names&#45;&gt;Step 2: Bundle countries in regions</title>
<path fill="none" stroke="#000000" d="M245.0322,-432.2022C256.5557,-423.1839 270.7217,-412.0975 283.2332,-402.3059"/>
<polygon fill="#000000" stroke="#000000" points="285.4537,-405.0125 291.1717,-396.0931 281.1395,-399.5 285.4537,-405.0125"/>
</g>
<!-- Pilot_case2_region.csv -->
<g id="node4" class="node">
<title>Pilot_case2_region.csv</title>
<ellipse fill="none" stroke="#000000" cx="321.2907" cy="-306" rx="92.0841" ry="18"/>
<text text-anchor="middle" x="321.2907" y="-302.3" font-family="Times,serif" font-size="14.00" fill="#000000">Pilot_case2_region.csv</text>
</g>
<!-- Step 2: Bundle countries in regions&#45;&gt;Pilot_case2_region.csv -->
<g id="edge2" class="edge">
<title>Step 2: Bundle countries in regions&#45;&gt;Pilot_case2_region.csv</title>
<path fill="none" stroke="#000000" d="M316.0571,-359.8314C316.8057,-352.131 317.6959,-342.9743 318.5279,-334.4166"/>
<polygon fill="#000000" stroke="#000000" points="322.0163,-334.7051 319.5005,-324.4133 315.0492,-334.0276 322.0163,-334.7051"/>
</g>
<!-- Step 3: Bundle countries in subregions -->
<g id="node5" class="node">
<title>Step 3: Bundle countries in subregions</title>
<polygon fill="none" stroke="#000000" points="494.7907,-252 267.7907,-252 267.7907,-216 494.7907,-216 494.7907,-252"/>
<text text-anchor="middle" x="381.2907" y="-230.3" font-family="Times,serif" font-size="14.00" fill="#000000">Step 3: Bundle countries in subregions</text>
</g>
<!-- Pilot_case2_region.csv&#45;&gt;Step 3: Bundle countries in subregions -->
<g id="edge10" class="edge">
<title>Pilot_case2_region.csv&#45;&gt;Step 3: Bundle countries in subregions</title>
<path fill="none" stroke="#000000" d="M336.1221,-288.2022C343.208,-279.6992 351.8259,-269.3577 359.6269,-259.9965"/>
<polygon fill="#000000" stroke="#000000" points="362.5,-262.016 366.2131,-252.0931 357.1224,-257.5347 362.5,-262.016"/>
</g>
<!-- Pilot_case2_region_subregion.csv -->
<g id="node6" class="node">
<title>Pilot_case2_region_subregion.csv</title>
<ellipse fill="none" stroke="#000000" cx="381.2907" cy="-162" rx="131.077" ry="18"/>
<text text-anchor="middle" x="381.2907" y="-158.3" font-family="Times,serif" font-size="14.00" fill="#000000">Pilot_case2_region_subregion.csv</text>
</g>
<!-- Step 3: Bundle countries in subregions&#45;&gt;Pilot_case2_region_subregion.csv -->
<g id="edge3" class="edge">
<title>Step 3: Bundle countries in subregions&#45;&gt;Pilot_case2_region_subregion.csv</title>
<path fill="none" stroke="#000000" d="M381.2907,-215.8314C381.2907,-208.131 381.2907,-198.9743 381.2907,-190.4166"/>
<polygon fill="#000000" stroke="#000000" points="384.7908,-190.4132 381.2907,-180.4133 377.7908,-190.4133 384.7908,-190.4132"/>
</g>
<!-- Step 4: Find TS accordingly -->
<g id="node7" class="node">
<title>Step 4: Find TS accordingly</title>
<polygon fill="none" stroke="#000000" points="372.2907,-108 202.2907,-108 202.2907,-72 372.2907,-72 372.2907,-108"/>
<text text-anchor="middle" x="287.2907" y="-86.3" font-family="Times,serif" font-size="14.00" fill="#000000">Step 4: Find TS accordingly</text>
</g>
<!-- Pilot_case2_region_subregion.csv&#45;&gt;Step 4: Find TS accordingly -->
<g id="edge11" class="edge">
<title>Pilot_case2_region_subregion.csv&#45;&gt;Step 4: Find TS accordingly</title>
<path fill="none" stroke="#000000" d="M358.0547,-144.2022C346.2808,-135.1839 331.8068,-124.0975 319.0233,-114.3059"/>
<polygon fill="#000000" stroke="#000000" points="320.9793,-111.3953 310.9122,-108.0931 316.7227,-116.9525 320.9793,-111.3953"/>
</g>
<!-- final file -->
<g id="node8" class="node">
<title>final file</title>
<ellipse fill="none" stroke="#000000" cx="287.2907" cy="-18" rx="40.8928" ry="18"/>
<text text-anchor="middle" x="287.2907" y="-14.3" font-family="Times,serif" font-size="14.00" fill="#000000">final file</text>
</g>
<!-- Step 4: Find TS accordingly&#45;&gt;final file -->
<g id="edge4" class="edge">
<title>Step 4: Find TS accordingly&#45;&gt;final file</title>
<path fill="none" stroke="#000000" d="M287.2907,-71.8314C287.2907,-64.131 287.2907,-54.9743 287.2907,-46.4166"/>
<polygon fill="#000000" stroke="#000000" points="290.7908,-46.4132 287.2907,-36.4133 283.7908,-46.4133 290.7908,-46.4132"/>
</g>
<!-- ISO Country codes(BOW) -->
<g id="node9" class="node">
<title>ISO Country codes(BOW)</title>
<ellipse fill="none" stroke="#000000" cx="105.2907" cy="-594" rx="105.0817" ry="18"/>
<text text-anchor="middle" x="105.2907" y="-590.3" font-family="Times,serif" font-size="14.00" fill="#000000">ISO Country codes(BOW)</text>
</g>
<!-- ISO Country codes(BOW)&#45;&gt;Step 1: Extract country names from text -->
<g id="edge5" class="edge">
<title>ISO Country codes(BOW)&#45;&gt;Step 1: Extract country names from text</title>
<path fill="none" stroke="#000000" d="M133.6131,-576.5708C148.7918,-567.2301 167.703,-555.5924 184.1577,-545.4664"/>
<polygon fill="#000000" stroke="#000000" points="186.325,-548.2424 193.0072,-540.0206 182.6562,-542.2808 186.325,-548.2424"/>
</g>
<!-- IPBES_VA_Uptake_Corpus -->
<g id="node10" class="node">
<title>IPBES_VA_Uptake_Corpus</title>
<ellipse fill="none" stroke="#000000" cx="339.2907" cy="-594" rx="111.2805" ry="18"/>
<text text-anchor="middle" x="339.2907" y="-590.3" font-family="Times,serif" font-size="14.00" fill="#000000">IPBES_VA_Uptake_Corpus</text>
</g>
<!-- IPBES_VA_Uptake_Corpus&#45;&gt;Step 1: Extract country names from text -->
<g id="edge6" class="edge">
<title>IPBES_VA_Uptake_Corpus&#45;&gt;Step 1: Extract country names from text</title>
<path fill="none" stroke="#000000" d="M310.9682,-576.5708C295.7895,-567.2301 276.8783,-555.5924 260.4236,-545.4664"/>
<polygon fill="#000000" stroke="#000000" points="261.9251,-542.2808 251.5741,-540.0206 258.2564,-548.2424 261.9251,-542.2808"/>
</g>
<!-- IPBES Regions/Subregions -->
<g id="node11" class="node">
<title>IPBES Regions/Subregions</title>
<ellipse fill="none" stroke="#000000" cx="447.2907" cy="-450" rx="107.781" ry="18"/>
<text text-anchor="middle" x="447.2907" y="-446.3" font-family="Times,serif" font-size="14.00" fill="#000000">IPBES Regions/Subregions</text>
</g>
<!-- IPBES Regions/Subregions&#45;&gt;Step 2: Bundle countries in regions -->
<g id="edge8" class="edge">
<title>IPBES Regions/Subregions&#45;&gt;Step 2: Bundle countries in regions</title>
<path fill="none" stroke="#000000" d="M415.4338,-432.7542C397.7867,-423.2009 375.6238,-411.2029 356.5455,-400.8748"/>
<polygon fill="#000000" stroke="#000000" points="358.2039,-397.7926 347.7435,-396.1098 354.8713,-403.9485 358.2039,-397.7926"/>
</g>
<!-- IPBES Regions/Subregions&#45;&gt;Step 3: Bundle countries in subregions -->
<g id="edge9" class="edge">
<title>IPBES Regions/Subregions&#45;&gt;Step 3: Bundle countries in subregions</title>
<path fill="none" stroke="#000000" d="M447.3511,-431.7145C446.8347,-400.849 443.0757,-336.9894 422.2907,-288 418.084,-278.085 411.6466,-268.3591 405.1106,-259.9539"/>
<polygon fill="#000000" stroke="#000000" points="407.665,-257.549 398.6207,-252.0307 402.2498,-261.9846 407.665,-257.549"/>
</g>
<!-- TS files -->
<g id="node12" class="node">
<title>TS files</title>
<ellipse fill="none" stroke="#000000" cx="193.2907" cy="-162" rx="38.1938" ry="18"/>
<text text-anchor="middle" x="193.2907" y="-158.3" font-family="Times,serif" font-size="14.00" fill="#000000">TS files</text>
</g>
<!-- TS files&#45;&gt;Step 4: Find TS accordingly -->
<g id="edge12" class="edge">
<title>TS files&#45;&gt;Step 4: Find TS accordingly</title>
<path fill="none" stroke="#000000" d="M213.6873,-146.3771C225.8499,-137.061 241.5567,-125.0303 255.3351,-114.4766"/>
<polygon fill="#000000" stroke="#000000" points="257.8055,-116.9932 263.616,-108.1338 253.5489,-111.436 257.8055,-116.9932"/>
</g>
</g>
</svg>
